<svg xmlns="http://www.w3.org/2000/svg" xmlns:xlink="http://www.w3.org/1999/xlink" version="1.1" x="0px" y="0px" width="100px" height="100px" viewBox="0 0 100 100" enable-background="new 0 0 100 100" xml:space="preserve">
<g id="Captions">
	<rect x="-192" y="-414" width="185" height="99"/>
	<rect y="-450" width="100" height="30"/>
	<text transform="matrix(1 0 0 1 66 -433.5)" fill="#000000" font-family="'Helvetica'" font-size="2.4">http://thenounproject.com</text>
	<text transform="matrix(1 0 0 1 7.166 -438.5)"><tspan x="0" y="0" fill="#000000" font-family="'Helvetica-Bold'" font-size="6.1578">The Noun Project</tspan><tspan x="1.12" y="4.8" fill="#000000" font-family="'Helvetica-Bold'" font-size="4">Icon Template</tspan></text>
	<text transform="matrix(1 0 0 1 -178.5 -403.5)" fill="#000000" font-family="'Helvetica-Bold'" font-size="6.1578">Reminders</text>
	<line fill="#000000" stroke="#FFFFFF" stroke-miterlimit="10" x1="8" y1="-428.5" x2="18" y2="-428.5"/>
	<line fill="#000000" stroke="#FFFFFF" stroke-miterlimit="10" x1="-179" y1="-397.5" x2="-162" y2="-397.5"/>
	<g>
		<g>
			<g>
				<rect x="-170.802" y="-382.682" fill="#000000" width="8.721" height="8.642"/>
				<path fill="#000000" d="M-164.455-371.688h4.747v-4.703h-4.747V-371.688z M-159.266-371.251h-5.63v-5.579h5.63V-371.251      L-159.266-371.251z M-166.221-369.938h8.279v-8.203h-8.279V-369.938L-166.221-369.938z M-157.5-369.5h-9.163v-9.079h9.163      V-369.5L-157.5-369.5z"/>
				<polygon fill="#000000" points="-166.149,-369.867 -166.292,-370.009 -158.013,-378.213 -157.871,-378.071     "/>
			</g>
		</g>
	</g>
	<rect x="-179" y="-356" fill="none" width="35" height="32.5"/>
	<text transform="matrix(1 0 0 1 -179 -353.8428)"><tspan x="0" y="0" fill="#000000" font-family="'Helvetica-Bold'" font-size="3">Strokes</tspan><tspan x="0" y="5" fill="#000000" font-family="'Helvetica'" font-size="2.4">Try to keep strokes at 4px</tspan><tspan x="0" y="10" fill="#000000" font-family="'Helvetica'" font-size="2.4">Minimum stroke weight is 2px</tspan><tspan x="0" y="14.5" fill="#000000" font-family="'Helvetica'" font-size="2.4">For thicker strokes use even </tspan><tspan x="0" y="17.5" fill="#000000" font-family="'Helvetica'" font-size="2.4">numbers: 6px, 8px etc.</tspan><tspan x="0" y="22" fill="#000000" font-family="'Helvetica-Bold'" font-size="2.4">Remember to expand strokes </tspan><tspan x="0" y="25" fill="#000000" font-family="'Helvetica-Bold'" font-size="2.4">before saving as an SVG </tspan></text>
	<rect x="-136.5" y="-356" fill="none" width="35" height="32.5"/>
	<text transform="matrix(1 0 0 1 -136.5 -353.8428)"><tspan x="0" y="0" fill="#000000" font-family="'Helvetica-Bold'" font-size="3">Size</tspan><tspan x="0" y="5" fill="#000000" font-family="'Helvetica'" font-size="2.4">Cannot be wider or taller than </tspan><tspan x="0" y="8.5" fill="#000000" font-family="'Helvetica'" font-size="2.4">100px (artboard size)</tspan><tspan x="0" y="13.5" fill="#000000" font-family="'Helvetica'" font-size="2.4">Scale your icon to fill as much of </tspan><tspan x="0" y="16.5" fill="#000000" font-family="'Helvetica'" font-size="2.4">the artboard as possible</tspan></text>
	<rect x="-94" y="-356" fill="none" width="35" height="32.5"/>
	<text transform="matrix(1 0 0 1 -94 -353.8428)"><tspan x="0" y="0" fill="#000000" font-family="'Helvetica-Bold'" font-size="3">Ungroup</tspan><tspan x="0" y="5" fill="#000000" font-family="'Helvetica'" font-size="2.4">If your design has more than one </tspan><tspan x="0" y="8" fill="#000000" font-family="'Helvetica'" font-size="2.4">shape, make sure to ungroup</tspan></text>
	<rect x="-50" y="-356" fill="none" width="35" height="32.5"/>
	<text transform="matrix(1 0 0 1 -50 -353.8428)"><tspan x="0" y="0" fill="#000000" font-family="'Helvetica-Bold'" font-size="3">Save as</tspan><tspan x="0" y="5" fill="#000000" font-family="'Helvetica'" font-size="2.4">Save as .SVG and make sure </tspan><tspan x="0" y="8" fill="#000000" font-family="'Helvetica'" font-size="2.4">&#8220;Use Artboards&#8221; is checked</tspan></text>
	<text transform="matrix(1.0074 0 0 1 -125.542 -383.4067)" fill="#000000" font-family="'Helvetica'" font-size="2.5731">100px</text>
	<text transform="matrix(1.0074 0 0 1 -41 -375)" fill="#000000" font-family="'Helvetica-Bold'" font-size="5.1462">.SVG</text>
	<rect x="-126.514" y="-379.185" fill="#000000" width="10.261" height="10.185"/>
	<rect x="-126.477" y="-382.234" fill="#000000" width="0.522" height="2.337"/>
	<rect x="-116.812" y="-382.234" fill="#000000" width="0.523" height="2.337"/>
	<rect x="-127" y="-381.663" fill="#000000" width="11.233" height="0.572"/>
	<g>
		<rect x="-83.805" y="-380.156" fill="#000000" width="10.305" height="10.156"/>
		<rect x="-76.809" y="-385.293" fill="#000000" width="3.308" height="3.261"/>
	</g>
	<rect x="-178.5" y="-391.5" fill="#000000" stroke="#FFFFFF" stroke-miterlimit="10" width="30" height="30"/>
	<rect x="-136.5" y="-391.5" fill="#000000" stroke="#FFFFFF" stroke-miterlimit="10" width="30" height="30"/>
	<rect x="-93.5" y="-391.5" fill="#000000" stroke="#FFFFFF" stroke-miterlimit="10" width="30" height="30"/>
	<rect x="-49.5" y="-391.5" fill="#000000" stroke="#FFFFFF" stroke-miterlimit="10" width="30" height="30"/>
</g>
<g id="Your_Icon">
	<rect x="21" y="-384" fill="#000000" width="26" height="17"/>
	<rect x="53" y="-384" fill="#000000" width="26" height="17"/>
	<rect x="53" y="-361" fill="#000000" width="26" height="17"/>
	<rect x="21" y="-361" fill="#000000" width="26" height="17"/>
	<path fill="#000000" d="M0-414v100h100v-100H0z M84-388.58v4.58v17.143v5.714V-344v4.286V-338H16v-50.58V-390h68V-388.58z"/>
	<rect x="138" y="-414" fill="#000000" width="100" height="100"/>
	<path fill="#000000" d="M212.857-346.027l-10.479-10.48c-0.099-0.098-0.204-0.176-0.419-0.34l-0.318-0.246l0.221-0.338   c2.14-3.275,3.271-7.082,3.271-11.002c0-11.143-9.065-20.208-20.209-20.208s-20.207,9.065-20.207,20.208   c0,11.145,9.063,20.209,20.207,20.209c3.913,0,7.72-1.131,11.004-3.271l0.388-0.159l0.246,0.324   c0.094,0.122,0.185,0.242,0.283,0.35l10.479,10.482c0.742,0.732,1.726,1.141,2.768,1.141c1.044,0,2.027-0.406,2.77-1.141   C214.381-342.023,214.381-344.507,212.857-346.027z M184.922-353.871c-8.029,0-14.561-6.533-14.561-14.563   c0-8.028,6.531-14.559,14.561-14.559c8.031,0,14.564,6.53,14.564,14.559C199.486-360.404,192.953-353.871,184.922-353.871z"/>
	<g id="Your_Icon_2_">
		<path fill="#000000" d="M488.541-368.833v-9.834h-9.834v-9.832h-9.832v9.832h-9.752v-9.832h-9.831v9.832h-9.833v9.833h9.833v9.667    h-9.833v9.833h9.833v7.147v2.686h9.831v-2.683v-7.15h9.752v4.416v5.417h9.832v-5.419v-4.414h9.831v-9.831h-9.831v-9.668H488.541z     M459.123-359.165v-9.668h9.752v9.668H459.123z"/>
	</g>
	<g id="Your_Icon_3_">
		<g>
			<path fill="#000000" d="M41.272-247.028c0,7.907-6.419,11.273-14.344,11.273c-7.906,0-14.326-3.364-14.326-11.273     c0-7.915,6.419-19.435,14.326-19.435C34.854-266.463,41.272-254.943,41.272-247.028z"/>
			<path fill="#000000" d="M87.139-247.028c0,7.907-6.419,11.273-14.334,11.273c-7.908,0-14.326-3.364-14.326-11.273     c0-7.915,6.418-19.435,14.326-19.435C80.72-266.463,87.139-254.943,87.139-247.028z"/>
			<path fill="#000000" d="M49.995-222.234c-30.628,0-43.688-12.343-43.688,2.949c0,15.312,19.559,33.748,43.688,33.748     c24.129,0,43.697-17.85,43.697-33.146C93.692-233.984,81.365-222.234,49.995-222.234z M49.995-190.07     c-5.942,0-11.573-1.364-16.7-3.488c0.797-3.614,5.471-6.447,11.369-6.447c1.957,0,3.71,0.392,5.331,0.921     c1.62-0.53,3.373-0.921,5.33-0.921c5.932,0,10.634,2.852,11.387,6.501C61.585-191.417,55.944-190.07,49.995-190.07z"/>
		</g>
	</g>
	<g id="Your_Icon_4_">
		<g>
			<path fill="#000000" d="M372.408-257.195c0-5.84-4.752-10.592-10.59-10.592c-3.77,0-7.08,1.986-8.955,4.961     c-1.877-2.975-5.186-4.961-8.957-4.961c-3.768,0-7.078,1.986-8.951,4.961c-1.879-2.975-5.186-4.961-8.955-4.961     s-7.078,1.986-8.953,4.961c-1.879-2.975-5.186-4.961-8.955-4.961s-7.078,1.986-8.955,4.961c-1.877-2.975-5.184-4.961-8.953-4.961     c-5.842,0-10.592,4.752-10.592,10.592c0,5.717,4.557,10.377,10.225,10.572c-0.811,1.496-1.27,3.209-1.27,5.023     c0,5.719,4.553,10.379,10.225,10.574c-0.811,1.496-1.271,3.209-1.271,5.027c0,5.715,4.557,10.373,10.225,10.57     c-0.809,1.496-1.27,3.209-1.27,5.023c0,5.717,4.555,10.381,10.227,10.574c-0.812,1.496-1.273,3.207-1.273,5.023     c0,5.84,4.752,10.594,10.594,10.594c5.838,0,10.592-4.754,10.592-10.594c0-1.816-0.465-3.527-1.273-5.023     c5.672-0.193,10.225-4.857,10.225-10.574c0-1.816-0.459-3.527-1.268-5.023c5.668-0.191,10.223-4.855,10.223-10.57     c0-1.818-0.459-3.531-1.27-5.027c5.67-0.193,10.225-4.855,10.225-10.574c0-1.814-0.461-3.527-1.27-5.023     C367.854-246.818,372.408-251.48,372.408-257.195z M343.908-264.32c3.936,0,7.127,3.189,7.127,7.125s-3.189,7.125-7.127,7.125     c-3.934,0-7.125-3.189-7.125-7.125C336.783-261.133,339.975-264.32,343.908-264.32z M334.957-248.723     c3.932,0,7.123,3.189,7.123,7.123c0,3.936-3.189,7.127-7.123,7.127c-3.938,0-7.129-3.191-7.129-7.127     C327.828-245.533,331.02-248.723,334.957-248.723z M333.123-226c0,3.934-3.188,7.123-7.121,7.123     c-3.938,0-7.127-3.188-7.127-7.123s3.189-7.125,7.127-7.125C329.936-233.125,333.123-229.936,333.123-226z M326.002-264.32     c3.932,0,7.121,3.189,7.121,7.125s-3.188,7.125-7.121,7.125c-3.938,0-7.127-3.189-7.127-7.125     C318.875-261.133,322.064-264.32,326.002-264.32z M317.047-248.723c3.934,0,7.125,3.189,7.125,7.123     c0,3.936-3.191,7.127-7.125,7.127c-3.936,0-7.125-3.191-7.125-7.127C309.922-245.533,313.111-248.723,317.047-248.723z      M308.092-264.32c3.936,0,7.125,3.189,7.125,7.125s-3.189,7.125-7.125,7.125s-7.125-3.189-7.125-7.125     C300.967-261.133,304.156-264.32,308.092-264.32z M290.184-250.07c-3.936,0-7.125-3.189-7.125-7.125s3.189-7.125,7.125-7.125     s7.125,3.189,7.125,7.125S294.119-250.07,290.184-250.07z M299.137-234.473c-3.936,0-7.125-3.191-7.125-7.127     c0-3.934,3.189-7.123,7.125-7.123s7.125,3.189,7.125,7.123C306.262-237.664,303.072-234.473,299.137-234.473z M308.092-218.877     c-3.936,0-7.125-3.188-7.125-7.123s3.189-7.125,7.125-7.125s7.125,3.189,7.125,7.125     C315.217-222.066,312.027-218.877,308.092-218.877z M317.047-203.277c-3.936,0-7.125-3.188-7.125-7.127     c0-3.934,3.188-7.125,7.125-7.125c3.934,0,7.125,3.189,7.125,7.125C324.172-206.465,320.98-203.277,317.047-203.277z      M326.002-187.68c-3.938,0-7.127-3.189-7.127-7.127c0-3.934,3.189-7.125,7.127-7.125c3.932,0,7.121,3.189,7.121,7.125     C333.123-190.869,329.936-187.68,326.002-187.68z M334.957-203.277c-3.938,0-7.129-3.188-7.129-7.127     c0-3.934,3.189-7.125,7.129-7.125c3.932,0,7.123,3.189,7.123,7.125C342.08-206.465,338.889-203.277,334.957-203.277z      M343.908-218.877c-3.934,0-7.125-3.188-7.125-7.123s3.191-7.125,7.125-7.125c3.936,0,7.127,3.189,7.127,7.125     C351.033-222.066,347.844-218.877,343.908-218.877z M352.863-234.473c-3.936,0-7.123-3.191-7.123-7.127     c0-3.934,3.188-7.123,7.123-7.123s7.125,3.189,7.125,7.123C359.988-237.664,356.799-234.473,352.863-234.473z M361.818-250.07     c-3.936,0-7.127-3.189-7.127-7.125s3.189-7.125,7.127-7.125c3.934,0,7.123,3.189,7.123,7.125S365.752-250.07,361.818-250.07z"/>
			<path fill="#000000" d="M323.723-228.1c0,0.666,0.348,1.109,0.791,1.373c-0.832,0.348-1.43,1.012-1.43,1.982     c0,1.357,1.137,2.371,2.801,2.371c1.666,0,2.801-1.014,2.801-2.371c0-0.971-0.596-1.635-1.441-1.982     c0.459-0.264,0.803-0.707,0.803-1.373c0-0.957-0.816-1.857-2.162-1.857C324.541-229.957,323.723-229.057,323.723-228.1z      M327.201-224.881c0,0.719-0.512,1.26-1.316,1.26s-1.318-0.541-1.318-1.26c0-0.723,0.514-1.252,1.318-1.252     C326.689-226.131,327.201-225.604,327.201-224.881z M326.635-228.016c0,0.443-0.293,0.762-0.75,0.762s-0.75-0.318-0.75-0.762     s0.293-0.75,0.75-0.75S326.635-228.461,326.635-228.016z"/>
		</g>
	</g>
	<path fill="#000000" d="M276-414v100h100v-100H276z M335-338h-43v-6h43V-338z M360-350h-68v-5h68V-350z M360-361h-68v-6h68V-361z    M360-373h-68v-5h68V-373z M360-384h-68v-6h68V-384z"/>
	<g id="Your_Icon_1_">
		<path fill="#000000" d="M514-276L514-276L514-276H414l0,0l0,0v100l0,0l0,0h100l0,0l0,0V-276z M504-266v80h-80v-80H504z"/>
		<path fill="#000000" d="M430-212v10h10v10h10v-10h9v10h10v-10h9v10h10v-10h10v-10h-10v-9h10v-10h-10v-9h10v-10h-10v-10h-10v10h-9    v-10h-10v10h-9v-10h-10v10h-10v10h10v9h-10v10h10v9H430z M459-231h10v10h-10V-231z M459-212h-9v-9h9V-212z M469-202h-10v-10h10    V-202z M469-212v-9h9v9H469z M488-202h-10v-10h10V-202z M488-221h-10v-10h10V-221z M478-250h10v10h-10V-250z M478-240v9h-9v-9H478    z M469-240h-10v-10h10V-240z M459-240v9h-9v-9H459z M440-250h10v10h-10V-250z M440-231h10v10h-10V-231z M450-212v10h-10v-10H450z"/>
	</g>
	<g id="Your_Icon_5_">
		<polygon fill="#000000" points="58.173,-119.857 67.762,-125.421 59.588,-130.164 50,-124.602   "/>
		<polygon fill="#000000" points="76.743,-109.082 82.727,-112.555 82.727,-105.609 82.727,-105.609 82.727,-116.736     77.348,-119.857 67.762,-114.295   "/>
		<polygon fill="#000000" points="76.743,-88.469 82.727,-91.939 82.727,-84.997 82.727,-84.997 82.727,-96.123 78.156,-98.775     68.568,-93.213   "/>
		<polygon fill="#000000" points="50,-103.988 58.98,-98.775 68.568,-104.339 59.588,-109.551   "/>
		<polygon fill="#000000" points="50,-115.114 41.826,-119.857 32.238,-114.295 40.412,-109.551   "/>
		<polygon fill="#000000" points="23.257,-109.082 17.273,-105.609 17.273,-101.428 21.844,-98.775 31.431,-104.339   "/>
		<polygon fill="#000000" points="50,-93.562 41.018,-98.775 31.431,-93.213 40.412,-88.001   "/>
		<polygon fill="#000000" points="76.743,-66.918 82.727,-70.391 82.727,-63.445 82.727,-63.443 82.727,-74.572 77.348,-77.693     67.762,-72.13   "/>
		<polygon fill="#000000" points="50,-82.438 58.173,-77.693 67.762,-83.257 59.588,-88.001   "/>
		<polygon fill="#000000" points="50,-72.95 41.826,-77.693 32.238,-72.13 40.412,-67.386   "/>
		<polygon fill="#000000" points="23.257,-88.469 17.273,-84.997 17.273,-80.814 22.652,-77.693 32.238,-83.257   "/>
		<polygon fill="#000000" points="50,-61.823 58.98,-56.609 68.568,-62.175 59.588,-67.386   "/>
		<polygon fill="#000000" points="41.018,-56.609 31.431,-51.047 40.412,-45.836 50,-51.398   "/>
		<polygon fill="#000000" points="23.257,-66.918 17.273,-63.445 17.273,-59.264 21.844,-56.609 31.431,-62.175   "/>
		<polygon fill="#000000" points="50.001,-135.729 40.413,-130.164 32.239,-125.421 22.653,-119.857 17.273,-116.736     17.273,-105.609 17.274,-105.609 23.258,-109.082 32.239,-114.294 41.827,-119.857 50.001,-124.602 59.589,-130.164   "/>
		<polygon fill="#000000" points="67.764,-125.421 58.174,-119.857 50.001,-115.114 40.413,-109.551 31.431,-104.339     21.844,-98.775 17.273,-96.123 17.273,-84.996 17.274,-84.996 23.258,-88.468 31.431,-93.212 41.019,-98.775 50.001,-103.988     59.589,-109.551 67.764,-114.294 77.35,-119.857   "/>
		<polygon fill="#000000" points="76.744,-109.082 68.568,-104.339 58.982,-98.775 50.001,-93.562 40.413,-88 32.239,-83.256     22.653,-77.693 17.273,-74.572 17.273,-63.443 17.274,-63.445 23.258,-66.918 32.239,-72.129 41.827,-77.693 50.001,-82.438     59.589,-88 68.568,-93.212 78.157,-98.775 82.727,-101.427 82.727,-105.609 82.727,-112.555   "/>
		<polygon fill="#000000" points="67.764,-83.256 58.174,-77.693 50.001,-72.949 40.413,-67.385 31.431,-62.174 21.844,-56.609     31.431,-51.047 41.019,-56.609 50.001,-61.822 59.589,-67.385 67.764,-72.129 77.35,-77.693 82.727,-80.814 82.727,-84.996     82.727,-91.939 76.744,-88.468   "/>
		<polygon fill="#000000" points="68.568,-62.174 58.982,-56.609 50.001,-51.398 40.413,-45.836 50.001,-40.271 59.589,-45.836     68.568,-51.047 78.157,-56.609 82.727,-59.262 82.727,-63.445 82.727,-70.389 76.744,-66.918   "/>
	</g>
	<g id="Your_Icon_6_">
		<g>
			<path fill="#000000" d="M222.724-241.492c0,0-7.967,4.627-14.727,4.641c-1.781,0.004-25.563,0-25.563,0     c-4.489-0.078-8.158-3.707-8.158-8.215c0-0.004,0-0.271,0-0.715c-1.002,0.477-2.112,0.797-3.187,0.996     c0.986-0.482,2.14-1.199,3.187-2.086c0.369-0.312,0.726-0.645,1.055-0.998c1.121-1.193,1.95-2.602,2.016-4.113l0.001-0.002     v-8.342c1.448-0.479,3.015-1.254,4.28-2.52c3.277-3.275,3.287-8.578,3.287-8.578s-5.302,0.008-8.58,3.287     c-1.262,1.262-2.036,2.82-2.514,4.266h-9.45c-0.479-1.445-1.255-3.004-2.516-4.266c-3.274-3.279-8.578-3.287-8.578-3.287     s0.011,5.303,3.287,8.578c1.264,1.266,2.832,2.041,4.28,2.52v8.342v0.002c0.076,1.727,1.121,3.316,2.453,4.611v24.471     c0,0.291,0.03,0.576,0.073,0.852c0,0.041-0.007,0.076-0.007,0.115c0,3.143,1.247,5.986,3.265,8.086v27.477v4.213     c0,0.873,0.71,1.582,1.585,1.582s1.584-0.707,1.584-1.582c0-0.002,0-0.004,0-0.006v-4.207h0.823v-14.051h0.731v-9.65     c-0.927-0.57-1.789-1.275-2.523-1.994c0.511,0.377,1.422,0.83,2.523,1.217v-0.012c1.163,0.389,2.399,0.605,3.689,0.605     c0.691,0,1.366-0.061,2.023-0.178v24.061v4.213c0,0.875,0.71,1.584,1.584,1.584c0.876,0,1.585-0.709,1.585-1.584     c0-0.002-0.001-0.004-0.001-0.004v-4.209h0.822v-14.049h0.733v-11.371l11.964-3.605l7.391,11.393h0.003v17.635v4.248h0.003     c0.022,0.855,0.72,1.547,1.582,1.547c0.861,0,1.56-0.691,1.58-1.547h0.003v-0.031c0-0.002,0.001-0.004,0.001-0.004     c0-0.002-0.001-0.004-0.001-0.006v-4.207h0.823v-17.625l1.282,0.004l-0.573-8.002l5.819,7.988h0.004v17.633v4.248h0.002     c0.019,0.857,0.719,1.549,1.582,1.549c0.861,0,1.562-0.691,1.583-1.549h0.002v-0.029c0,0,0-0.004,0-0.006s0-0.004,0-0.006v-4.207     h0.822v-17.623l1.283,0.004c0,0-0.023-22.215-0.023-24.5c0-2.311-0.936-4.4-2.45-5.912c0.73-0.002,1.693-0.213,2.42-0.434     C221.268-236.168,222.724-241.492,222.724-241.492z"/>
			<g>
				
					<ellipse transform="matrix(0.3463 0.9381 -0.9381 0.3463 -123.8936 -328.7496)" fill="#000000" cx="173.955" cy="-253.277" rx="1.564" ry="2.1"/>
				<path fill="#000000" d="M166.325-252.549c-0.302,0.807-1.427,1.139-2.516,0.738c-1.086-0.404-1.725-1.383-1.425-2.195      c0.302-0.809,1.427-1.139,2.514-0.738C165.984-254.342,166.625-253.361,166.325-252.549z"/>
			</g>
			<path fill="#000000" d="M170.204-247.131c-0.126-0.287-2.902-0.287-3.029,0c-0.124,0.289,0.006,0.623,0.293,0.748l0.994,0.434     c0.005,0.002,0.012,0.002,0.018,0.004c0.011,0.006,0.021,0.008,0.029,0.01c0.025,0.01,0.051,0.018,0.076,0.021     c0.013,0.002,0.029,0.002,0.042,0.004c0.021,0.004,0.041,0.006,0.063,0.006c0.021,0,0.043-0.002,0.065-0.006     c0.014-0.002,0.028-0.002,0.04-0.004c0.025-0.004,0.051-0.014,0.074-0.021c0.011-0.002,0.021-0.004,0.03-0.01     c0.006-0.002,0.013-0.002,0.019-0.004l0.992-0.434C170.196-246.508,170.328-246.842,170.204-247.131z"/>
		</g>
	</g>
	<polygon points="161.257,-109.082 170.238,-114.295 179.827,-119.857 188,-124.602 197.588,-130.164 188,-135.729    178.413,-130.164 170.238,-125.422 160.652,-119.857 155.273,-116.736 155.273,-105.609 155.274,-105.609  "/>
	<polygon points="161.257,-88.469 169.432,-93.213 179.019,-98.775 188,-103.988 197.588,-109.551 205.762,-114.295    215.349,-119.857 205.762,-125.422 196.174,-119.857 188,-115.114 178.413,-109.551 169.432,-104.339 159.844,-98.775    155.274,-96.123 155.273,-96.123 155.273,-91.041 155.273,-84.996 155.274,-84.996  "/>
	<polygon points="214.743,-109.082 206.568,-104.339 196.981,-98.775 188,-93.562 178.413,-88 170.238,-83.256 160.652,-77.693    155.274,-74.572 155.273,-74.572 155.273,-69.65 155.273,-63.443 155.274,-63.445 161.257,-66.918 170.238,-72.129    179.827,-77.693 188,-82.436 197.588,-88 206.568,-93.213 216.156,-98.775 220.727,-101.428 220.727,-105.609 220.727,-108.41    220.727,-112.554  "/>
	<polygon points="205.762,-83.256 196.174,-77.693 188,-72.949 178.413,-67.385 169.432,-62.174 159.844,-56.609 169.432,-51.047    179.019,-56.609 188,-61.822 197.588,-67.385 205.762,-72.129 215.349,-77.693 220.727,-80.812 220.727,-84.996 220.727,-88    220.727,-91.939 214.743,-88.469  "/>
	<polygon points="206.568,-62.174 196.981,-56.609 188,-51.398 178.413,-45.836 188,-40.271 197.588,-45.836 206.568,-51.047    216.156,-56.609 220.727,-59.264 220.727,-63.445 220.727,-70.389 214.743,-66.918  "/>
	<g>
		<path fill="#000000" d="M642.02-364.11c-0.773,0-1.519,0.114-2.229,0.313c-0.17-6.744-5.679-12.162-12.464-12.162    c-4.368,0-8.201,2.251-10.428,5.65c-1.38-2.61-4.117-4.393-7.275-4.393c-2.621,0-4.95,1.229-6.456,3.139    c-2.865-6.496-9.357-11.031-16.913-11.031c-8.99,0-16.479,6.42-18.138,14.926c-0.936-0.248-1.911-0.393-2.925-0.393    c-6.311,0-11.426,5.116-11.426,11.427c0,0.907,0.117,1.787,0.317,2.634h95.921c0.145-0.609,0.229-1.243,0.229-1.896    C650.233-360.433,646.556-364.11,642.02-364.11z"/>
	</g>
	<g>
		<path fill="#000000" d="M320.117-132.266l-34.812,3.573l-3.573,34.81l14.5,14.502l38.387-38.385    C326.498-125.885,320.117-132.266,320.117-132.266z M306.135-107.863c-2.878,2.874-7.541,2.879-10.414-0.004    c-2.881-2.871-2.882-7.532-0.003-10.418c2.875-2.868,7.542-2.867,10.414,0.004C309-115.393,309-110.746,306.135-107.863z"/>
		<path fill="#000000" d="M338.19-114.194l-38.386,38.386l29.756,29.762c0,0,5.206,5.205,10.412,0l27.982-27.97    c0,0,5.205-5.206,0-10.411C365.051-87.34,350.494-101.895,338.19-114.194z M342.076-67.777l-16.109-0.283l0.512-6.006l8.66-0.182    l-1.939-19.636l5.987-0.899L342.076-67.777z"/>
	</g>
	<g>
		<path fill="#000000" d="M458.116-132.266l-34.811,3.573l-3.573,34.811l14.501,14.501l38.386-38.386    C464.498-125.884,458.116-132.266,458.116-132.266z M444.136-107.864c-2.879,2.875-7.543,2.881-10.415-0.003    c-2.882-2.87-2.882-7.532-0.003-10.417c2.875-2.869,7.543-2.869,10.414,0.003C447.001-115.392,447.001-110.746,444.136-107.864z"/>
		<path fill="#000000" d="M476.19-114.194l-38.387,38.387l29.758,29.76c0,0,5.205,5.205,10.412,0l27.98-27.969    c0,0,5.206-5.205,0-10.411C503.05-87.339,488.494-101.895,476.19-114.194z M487.708-80.905v6.03l-10.666,0.003v10.704h-5.861    v-10.706l-10.662,0.002v-6.029h10.663l0.001-10.705h5.859l0.001,10.705L487.708-80.905z"/>
	</g>
	<path fill="#000000" d="M596.116-132.266l-34.811,3.573l-3.573,34.811l14.501,14.501l38.386-38.386   C602.498-125.884,596.116-132.266,596.116-132.266z M582.136-107.864c-2.879,2.875-7.543,2.881-10.415-0.003   c-2.882-2.87-2.882-7.532-0.003-10.417c2.875-2.869,7.543-2.869,10.414,0.003C585.001-115.392,585.001-110.746,582.136-107.864z"/>
	<path fill="#000000" d="M643.954-84.428c-2.904-2.911-17.46-17.467-29.764-29.767l-38.387,38.387l29.758,29.76   c0,0,5.205,5.205,10.412,0l27.98-27.969C643.954-74.017,649.16-79.222,643.954-84.428z M619.74-66.111l-7.57-7.57l-7.537,7.54   l-4.264-4.264l7.539-7.54l-7.568-7.57l4.144-4.143l7.569,7.568l7.539-7.543l4.265,4.264l-7.54,7.544l7.568,7.569L619.74-66.111z"/>
	<polygon points="629.342,-214.099 629.342,-211.69 650.805,-214.113 648.493,-216.289 631.334,-214.325 634.802,-218.868    644.44,-220.105 642.128,-222.28 636.197,-221.42 636.138,-221.338 636.138,-221.807 636.138,-223.083 636.138,-225.096    641.996,-225.957 644.497,-228.618 636.138,-227.503 636.138,-230.756 647.881,-232.214 650.382,-234.873 636.138,-233.165    636.138,-241.477 574.692,-235.277 574.694,-240.89 574.696,-240.89 574.696,-243.298 574.696,-243.31 574.686,-243.297    553.195,-240.887 555.509,-238.711 572.621,-240.653 569.073,-236.116 559.563,-234.897 561.877,-232.721 567.807,-233.582    567.865,-233.661 567.865,-229.889 562.015,-229.044 559.512,-226.383 567.865,-227.482 567.865,-224.229 556.13,-222.787    553.625,-220.128 567.865,-221.821 567.865,-216.192 567.865,-214.919 567.865,-213.784 629.359,-219.989 629.359,-214.1  "/>
	<g>
		<path d="M91.582,27.129H8.41V10.494h83.172V27.129z"/>
	</g>
	<g>
		<rect x="8.41" y="73.083" width="16.427" height="16.423"/>
		<rect x="8.41" y="52.557" width="16.427" height="16.422"/>
		<rect x="8.41" y="32.025" width="16.427" height="16.424"/>
	</g>
	<g>
		<rect x="30.661" y="73.083" width="16.423" height="16.423"/>
		<rect x="30.661" y="52.557" width="16.423" height="16.422"/>
		<rect x="30.661" y="32.025" width="16.423" height="16.424"/>
	</g>
	<g>
		<rect x="52.916" y="73.083" width="16.419" height="16.423"/>
		<rect x="52.916" y="52.557" width="16.419" height="16.422"/>
		<rect x="52.916" y="32.025" width="16.419" height="16.424"/>
	</g>
	<g>
		<rect x="75.164" y="73.083" width="16.426" height="16.423"/>
		<rect x="75.164" y="52.557" width="16.426" height="16.422"/>
		<rect x="75.164" y="32.025" width="16.426" height="16.424"/>
	</g>
</g>
</svg>